<svg id="visual" viewBox="0 0 900 600" width="900" height="600" xmlns="http://www.w3.org/2000/svg" xmlns:xlink="http://www.w3.org/1999/xlink" version="1.1"><rect x="0" y="0" width="900" height="600" fill="#523f84"></rect><path d="M0 136L37.5 136.7C75 137.3 150 138.7 225 142C300 145.3 375 150.7 450 151.3C525 152 600 148 675 142.8C750 137.7 825 131.3 862.5 128.2L900 125L900 601L862.5 601C825 601 750 601 675 601C600 601 525 601 450 601C375 601 300 601 225 601C150 601 75 601 37.5 601L0 601Z" fill="#69fa7f"></path><path d="M0 196L37.5 190C75 184 150 172 225 171.2C300 170.3 375 180.7 450 177C525 173.3 600 155.7 675 156.7C750 157.7 825 177.3 862.5 187.2L900 197L900 601L862.5 601C825 601 750 601 675 601C600 601 525 601 450 601C375 601 300 601 225 601C150 601 75 601 37.5 601L0 601Z" fill="#00efa8"></path><path d="M0 217L37.5 219.8C75 222.7 150 228.3 225 225.8C300 223.3 375 212.7 450 210C525 207.3 600 212.7 675 216.8C750 221 825 224 862.5 225.5L900 227L900 601L862.5 601C825 601 750 601 675 601C600 601 525 601 450 601C375 601 300 601 225 601C150 601 75 601 37.5 601L0 601Z" fill="#00e0c9"></path><path d="M0 250L37.5 254.5C75 259 150 268 225 267.2C300 266.3 375 255.7 450 249.8C525 244 600 243 675 241.5C750 240 825 238 862.5 237L900 236L900 601L862.5 601C825 601 750 601 675 601C600 601 525 601 450 601C375 601 300 601 225 601C150 601 75 601 37.5 601L0 601Z" fill="#00cfde"></path><path d="M0 296L37.5 300.7C75 305.3 150 314.7 225 315C300 315.3 375 306.7 450 304.7C525 302.7 600 307.3 675 311.3C750 315.3 825 318.7 862.5 320.3L900 322L900 601L862.5 601C825 601 750 601 675 601C600 601 525 601 450 601C375 601 300 601 225 601C150 601 75 601 37.5 601L0 601Z" fill="#00bce4"></path><path d="M0 325L37.5 330.7C75 336.3 150 347.7 225 353.7C300 359.7 375 360.3 450 356.5C525 352.7 600 344.3 675 338.8C750 333.3 825 330.7 862.5 329.3L900 328L900 601L862.5 601C825 601 750 601 675 601C600 601 525 601 450 601C375 601 300 601 225 601C150 601 75 601 37.5 601L0 601Z" fill="#00a8dc"></path><path d="M0 380L37.5 376.3C75 372.7 150 365.3 225 366C300 366.7 375 375.3 450 378.8C525 382.3 600 380.7 675 383.3C750 386 825 393 862.5 396.5L900 400L900 601L862.5 601C825 601 750 601 675 601C600 601 525 601 450 601C375 601 300 601 225 601C150 601 75 601 37.5 601L0 601Z" fill="#1793d0"></path><path d="M0 450L37.5 448.3C75 446.7 150 443.3 225 439.5C300 435.7 375 431.3 450 430.3C525 429.3 600 431.7 675 430.7C750 429.7 825 425.3 862.5 423.2L900 421L900 601L862.5 601C825 601 750 601 675 601C600 601 525 601 450 601C375 601 300 601 225 601C150 601 75 601 37.5 601L0 601Z" fill="#2d7fc2"></path><path d="M0 455L37.5 458.2C75 461.3 150 467.7 225 467.5C300 467.3 375 460.7 450 455.8C525 451 600 448 675 448.3C750 448.7 825 452.3 862.5 454.2L900 456L900 601L862.5 601C825 601 750 601 675 601C600 601 525 601 450 601C375 601 300 601 225 601C150 601 75 601 37.5 601L0 601Z" fill="#3e6ab0"></path><path d="M0 524L37.5 523.7C75 523.3 150 522.7 225 517.3C300 512 375 502 450 501C525 500 600 508 675 515C750 522 825 528 862.5 531L900 534L900 601L862.5 601C825 601 750 601 675 601C600 601 525 601 450 601C375 601 300 601 225 601C150 601 75 601 37.5 601L0 601Z" fill="#4b559b"></path><path d="M0 536L37.5 538.8C75 541.7 150 547.3 225 548C300 548.7 375 544.3 450 541.7C525 539 600 538 675 543.3C750 548.7 825 560.3 862.5 566.2L900 572L900 601L862.5 601C825 601 750 601 675 601C600 601 525 601 450 601C375 601 300 601 225 601C150 601 75 601 37.5 601L0 601Z" fill="#523f84"></path></svg>