<?xml version="1.0" encoding="UTF-8" standalone="no"?>
<!-- Created with Inkscape (http://www.inkscape.org/) -->

<svg
   xmlns:dc="http://purl.org/dc/elements/1.1/"
   xmlns:cc="http://creativecommons.org/ns#"
   xmlns:rdf="http://www.w3.org/1999/02/22-rdf-syntax-ns#"
   xmlns:svg="http://www.w3.org/2000/svg"
   xmlns="http://www.w3.org/2000/svg"
   xmlns:sodipodi="http://sodipodi.sourceforge.net/DTD/sodipodi-0.dtd"
   xmlns:inkscape="http://www.inkscape.org/namespaces/inkscape"
   version="1.1"
   id="svg4153"
   xml:space="preserve"
   width="1265.3333"
   height="1265.3333"
   viewBox="0 0 1265.3333 1265.3333"
   sodipodi:docname="epingle.svg"
   inkscape:version="0.92.3 (2405546, 2018-03-11)"><metadata
     id="metadata4159"><rdf:RDF><cc:Work
         rdf:about=""><dc:format>image/svg+xml</dc:format><dc:type
           rdf:resource="http://purl.org/dc/dcmitype/StillImage" /><dc:title></dc:title></cc:Work></rdf:RDF></metadata><defs
     id="defs4157" /><sodipodi:namedview
     pagecolor="#ffffff"
     bordercolor="#666666"
     borderopacity="1"
     objecttolerance="10"
     gridtolerance="10"
     guidetolerance="10"
     inkscape:pageopacity="0"
     inkscape:pageshadow="2"
     inkscape:window-width="1189"
     inkscape:window-height="773"
     id="namedview4155"
     showgrid="false"
     fit-margin-top="0"
     fit-margin-left="0"
     fit-margin-right="0"
     fit-margin-bottom="0"
     inkscape:zoom="0.37196045"
     inkscape:cx="642.67757"
     inkscape:cy="645.33334"
     inkscape:window-x="400"
     inkscape:window-y="124"
     inkscape:window-maximized="0"
     inkscape:current-layer="g4161" /><g
     id="g4161"
     inkscape:groupmode="layer"
     inkscape:label="ink_ext_XXXXXX"
     transform="matrix(1.3333333,0,0,-1.3333333,-158.66666,1420)"><g
       id="g4163"
       transform="scale(0.1)"
       style="fill:#4a47b5;fill-opacity:1"><path
         d="m 7531.49,8401.45 -1947.93,534.73 c -150.08,203.98 -232.89,446.37 -226.13,693.24 L 8079.86,8882.08 C 7959.63,8666.36 7764.69,8500.2 7531.49,8401.45 Z m -654.41,-2025.92 -1807.7,496.24 505.86,1842.76 1807.7,-496.23 z M 7202.6,5019.87 5894.55,5378.96 5212.24,2893.44 4753.55,2180.58 4723.1,3027.71 5405.41,5513.23 4097.35,5872.3 c 195.38,383.88 530.52,663.44 912.29,781.85 l 2.57,9.38 1807.7,-496.24 -2.57,-9.37 c 267.81,-296.74 413.25,-708.21 385.26,-1138.05 z M 5935,10650 c -2620.59,0 -4745,-2124.41 -4745,-4745 0,-2620.59 2124.41,-4745 4745,-4745 2620.59,0 4745,2124.41 4745,4745 0,2620.59 -2124.41,4745 -4745,4745"
         style="fill:#4a47b5;fill-opacity:1;fill-rule:nonzero;stroke:none"
         id="path4165"
         inkscape:connector-curvature="0" /></g></g></svg>