<svg id="visual" viewBox="0 0 900 600" width="900" height="600" xmlns="http://www.w3.org/2000/svg" xmlns:xlink="http://www.w3.org/1999/xlink" version="1.1"><rect x="0" y="0" width="900" height="600" fill="#523f84"></rect><path d="M0 72L37.5 65.7C75 59.3 150 46.7 225 38.8C300 31 375 28 450 33.3C525 38.7 600 52.3 675 70.3C750 88.3 825 110.7 862.5 121.8L900 133L900 601L862.5 601C825 601 750 601 675 601C600 601 525 601 450 601C375 601 300 601 225 601C150 601 75 601 37.5 601L0 601Z" fill="#f6fa69"></path><path d="M0 183L37.5 180.2C75 177.3 150 171.7 225 166.5C300 161.3 375 156.7 450 164.8C525 173 600 194 675 185C750 176 825 137 862.5 117.5L900 98L900 601L862.5 601C825 601 750 601 675 601C600 601 525 601 450 601C375 601 300 601 225 601C150 601 75 601 37.5 601L0 601Z" fill="#ffdd59"></path><path d="M0 190L37.5 194.8C75 199.7 150 209.3 225 203.3C300 197.3 375 175.7 450 175.8C525 176 600 198 675 199.8C750 201.7 825 183.3 862.5 174.2L900 165L900 601L862.5 601C825 601 750 601 675 601C600 601 525 601 450 601C375 601 300 601 225 601C150 601 75 601 37.5 601L0 601Z" fill="#ffbf56"></path><path d="M0 185L37.5 196.2C75 207.3 150 229.7 225 249C300 268.3 375 284.7 450 287C525 289.3 600 277.7 675 259.7C750 241.7 825 217.3 862.5 205.2L900 193L900 601L862.5 601C825 601 750 601 675 601C600 601 525 601 450 601C375 601 300 601 225 601C150 601 75 601 37.5 601L0 601Z" fill="#ffa25c"></path><path d="M0 246L37.5 258.3C75 270.7 150 295.3 225 298.3C300 301.3 375 282.7 450 281.7C525 280.7 600 297.3 675 289.5C750 281.7 825 249.3 862.5 233.2L900 217L900 601L862.5 601C825 601 750 601 675 601C600 601 525 601 450 601C375 601 300 601 225 601C150 601 75 601 37.5 601L0 601Z" fill="#ff8766"></path><path d="M0 339L37.5 335.7C75 332.3 150 325.7 225 322.8C300 320 375 321 450 324.3C525 327.7 600 333.3 675 333.8C750 334.3 825 329.7 862.5 327.3L900 325L900 601L862.5 601C825 601 750 601 675 601C600 601 525 601 450 601C375 601 300 601 225 601C150 601 75 601 37.5 601L0 601Z" fill="#f67072"></path><path d="M0 421L37.5 404.3C75 387.7 150 354.3 225 351.8C300 349.3 375 377.7 450 384.3C525 391 600 376 675 360.5C750 345 825 329 862.5 321L900 313L900 601L862.5 601C825 601 750 601 675 601C600 601 525 601 450 601C375 601 300 601 225 601C150 601 75 601 37.5 601L0 601Z" fill="#e05d7d"></path><path d="M0 436L37.5 431.7C75 427.3 150 418.7 225 412.3C300 406 375 402 450 409.3C525 416.7 600 435.3 675 440C750 444.7 825 435.3 862.5 430.7L900 426L900 601L862.5 601C825 601 750 601 675 601C600 601 525 601 450 601C375 601 300 601 225 601C150 601 75 601 37.5 601L0 601Z" fill="#c45085"></path><path d="M0 481L37.5 481.2C75 481.3 150 481.7 225 475.7C300 469.7 375 457.3 450 456.8C525 456.3 600 467.7 675 473.2C750 478.7 825 478.3 862.5 478.2L900 478L900 601L862.5 601C825 601 750 601 675 601C600 601 525 601 450 601C375 601 300 601 225 601C150 601 75 601 37.5 601L0 601Z" fill="#a2498a"></path><path d="M0 465L37.5 470C75 475 150 485 225 489.3C300 493.7 375 492.3 450 490C525 487.7 600 484.3 675 483.7C750 483 825 485 862.5 486L900 487L900 601L862.5 601C825 601 750 601 675 601C600 601 525 601 450 601C375 601 300 601 225 601C150 601 75 601 37.5 601L0 601Z" fill="#7c448a"></path><path d="M0 509L37.5 518.5C75 528 150 547 225 558C300 569 375 572 450 566.5C525 561 600 547 675 546.3C750 545.7 825 558.3 862.5 564.7L900 571L900 601L862.5 601C825 601 750 601 675 601C600 601 525 601 450 601C375 601 300 601 225 601C150 601 75 601 37.5 601L0 601Z" fill="#523f84"></path></svg>